<mxfile host="Electron" agent="Mozilla/5.0 (Windows NT 10.0; Win64; x64) AppleWebKit/537.36 (KHTML, like Gecko) draw.io/24.7.17 Chrome/128.0.6613.36 Electron/32.0.1 Safari/537.36" version="24.7.17">
  <diagram name="Page-1" id="ilnZP65R17ye1QKgUH83">
    <mxGraphModel dx="1036" dy="606" grid="0" gridSize="10" guides="1" tooltips="1" connect="1" arrows="1" fold="1" page="1" pageScale="1" pageWidth="827" pageHeight="1169" math="0" shadow="0">
      <root>
        <mxCell id="0" />
        <mxCell id="1" parent="0" />
        <mxCell id="678eFs1g6-lzh1nodeOx-1" value="Tuteur ou Elève" style="rhombus;whiteSpace=wrap;html=1;rounded=0;" parent="1" vertex="1">
          <mxGeometry x="40" y="260" width="120" height="120" as="geometry" />
        </mxCell>
        <mxCell id="678eFs1g6-lzh1nodeOx-2" value="Se connecter" style="rounded=0;whiteSpace=wrap;html=1;" parent="1" vertex="1">
          <mxGeometry x="400" y="100" width="120" height="60" as="geometry" />
        </mxCell>
        <mxCell id="678eFs1g6-lzh1nodeOx-3" value="Créer un compte" style="rounded=0;whiteSpace=wrap;html=1;" parent="1" vertex="1">
          <mxGeometry x="400" y="290" width="120" height="60" as="geometry" />
        </mxCell>
        <mxCell id="678eFs1g6-lzh1nodeOx-4" value="Récupérer son MDP" style="rounded=0;whiteSpace=wrap;html=1;" parent="1" vertex="1">
          <mxGeometry x="400" y="480" width="120" height="60" as="geometry" />
        </mxCell>
        <mxCell id="678eFs1g6-lzh1nodeOx-5" value="" style="endArrow=classic;html=1;rounded=0;entryX=0;entryY=0.5;entryDx=0;entryDy=0;exitX=1;exitY=0;exitDx=0;exitDy=0;" parent="1" source="678eFs1g6-lzh1nodeOx-1" target="678eFs1g6-lzh1nodeOx-2" edge="1">
          <mxGeometry width="50" height="50" relative="1" as="geometry">
            <mxPoint x="190" y="280" as="sourcePoint" />
            <mxPoint x="240" y="230" as="targetPoint" />
          </mxGeometry>
        </mxCell>
        <mxCell id="678eFs1g6-lzh1nodeOx-6" value="" style="endArrow=classic;html=1;rounded=0;entryX=0;entryY=0.5;entryDx=0;entryDy=0;exitX=1;exitY=0.5;exitDx=0;exitDy=0;" parent="1" source="678eFs1g6-lzh1nodeOx-1" target="678eFs1g6-lzh1nodeOx-3" edge="1">
          <mxGeometry width="50" height="50" relative="1" as="geometry">
            <mxPoint x="260" y="360" as="sourcePoint" />
            <mxPoint x="310" y="310" as="targetPoint" />
          </mxGeometry>
        </mxCell>
        <mxCell id="678eFs1g6-lzh1nodeOx-8" value="" style="endArrow=classic;html=1;rounded=0;entryX=0;entryY=0.5;entryDx=0;entryDy=0;exitX=1;exitY=1;exitDx=0;exitDy=0;" parent="1" source="678eFs1g6-lzh1nodeOx-1" target="678eFs1g6-lzh1nodeOx-4" edge="1">
          <mxGeometry width="50" height="50" relative="1" as="geometry">
            <mxPoint x="390" y="340" as="sourcePoint" />
            <mxPoint x="440" y="290" as="targetPoint" />
          </mxGeometry>
        </mxCell>
      </root>
    </mxGraphModel>
  </diagram>
</mxfile>
